<?xml version="1.0" encoding="UTF-8" standalone="no"?>
<!-- Created with Inkscape (http://www.inkscape.org/) -->

<svg
   id="svg2"
   version="1.1"
   inkscape:version="1.1.2 (0a00cf5, 2022-02-04)"
   width="60"
   height="160"
   sodipodi:docname="MusicDnDoublewholenote.svg"
   xmlns:inkscape="http://www.inkscape.org/namespaces/inkscape"
   xmlns:sodipodi="http://sodipodi.sourceforge.net/DTD/sodipodi-0.dtd"
   xmlns="http://www.w3.org/2000/svg"
   xmlns:svg="http://www.w3.org/2000/svg">
  <defs
     id="defs6">
    <inkscape:perspective
       sodipodi:type="inkscape:persp3d"
       inkscape:vp_x="0 : -138.24991 : 1"
       inkscape:vp_y="0 : 1000 : 0"
       inkscape:vp_z="1 : -138.24991 : 1"
       inkscape:persp3d-origin="0.5 : -138.41658 : 1"
       id="perspective10" />
  </defs>
  <sodipodi:namedview
     pagecolor="#ffffff"
     bordercolor="#666666"
     borderopacity="1"
     objecttolerance="10"
     gridtolerance="10"
     guidetolerance="10"
     inkscape:pageopacity="0"
     inkscape:pageshadow="2"
     inkscape:window-width="1920"
     inkscape:window-height="1025"
     id="namedview4"
     showgrid="false"
     inkscape:zoom="5.8"
     inkscape:cx="47.844828"
     inkscape:cy="36.810345"
     inkscape:window-x="0"
     inkscape:window-y="0"
     inkscape:window-maximized="1"
     inkscape:current-layer="svg2"
     inkscape:pagecheckerboard="0">
    <inkscape:grid
       type="xygrid"
       id="grid2830"
       empspacing="5"
       visible="true"
       enabled="true"
       snapvisiblegridlinesonly="true" />
  </sodipodi:namedview>
  <g
     id="g2839"
     transform="matrix(0.81549302,0,0,0.81549302,171.96406,-45.601725)">
    <path
       sodipodi:nodetypes="cccccccccccccccccsccccccsscccccc"
       id="path2818"
       d="m -211,56 h 3 v 30 h -3 z m 8,0 h 3 v 12.417297 l 2.57505,-3.060272 c 6.43413,-7.646532 25.13123,-8.008376 32.94651,-0.637613 L -161,68 V 56 h 3 v 30 h -3 V 74.110396 l -2.57505,3.06027 c -2.88837,3.43264 -10.27853,6.09318 -16.92495,6.09318 -6.64642,0 -14.03658,-2.66054 -16.92495,-6.09318 L -200,74.110396 V 86 h -3 z m 29.60224,22.748146 c 3.05854,-4.66792 0.13433,-13.916407 -5.16332,-16.330174 -7.77978,-3.544708 -12.54851,2.495846 -9.30827,11.790804 2.2412,6.42911 11.35935,9.28925 14.47159,4.53937 z M -153,56 h 3 v 30 h -3 z"
       style="fill:#000000" />
  </g>
</svg>
