<?xml version="1.0" encoding="UTF-8" standalone="no"?>
<!-- Created with Inkscape (http://www.inkscape.org/) -->

<svg
   width="60"
   height="160"
   id="svg2"
   version="1.1"
   inkscape:version="1.1.2 (0a00cf5, 2022-02-04)"
   sodipodi:docname="Music-sixtyfourthnote.svg"
   style="display:inline"
   xmlns:inkscape="http://www.inkscape.org/namespaces/inkscape"
   xmlns:sodipodi="http://sodipodi.sourceforge.net/DTD/sodipodi-0.dtd"
   xmlns="http://www.w3.org/2000/svg"
   xmlns:svg="http://www.w3.org/2000/svg">
  <defs
     id="defs4" />
  <sodipodi:namedview
     id="base"
     pagecolor="#ffffff"
     bordercolor="#666666"
     borderopacity="1.0"
     inkscape:pageopacity="0.0"
     inkscape:pageshadow="2"
     inkscape:zoom="5.7125526"
     inkscape:cx="18.468101"
     inkscape:cy="124.90038"
     inkscape:document-units="px"
     inkscape:current-layer="layer2"
     showgrid="false"
     inkscape:window-width="1920"
     inkscape:window-height="1025"
     inkscape:window-x="0"
     inkscape:window-y="0"
     inkscape:window-maximized="1"
     fit-margin-top="1"
     fit-margin-left="1"
     fit-margin-right="1"
     fit-margin-bottom="1"
     inkscape:pagecheckerboard="0" />
  <g
     id="layer2"
     transform="translate(-82.84375,-214.4375)">
    <path
       style="fill:#000000;fill-opacity:1;stroke:#000000;stroke-width:0.345543px;stroke-linecap:butt;stroke-linejoin:miter;stroke-opacity:1"
       d="m 109.50642,229.55086 v 121.87499 c -2.76962,-2.61741 -10.589735,-2.43046 -16.617735,0.9348 -6.028006,3.36524 -9.75961,8.42788 -9.61223,14.02186 0.118907,4.51332 5.050494,7.85224 9.938068,7.85224 4.887571,0 14.336867,-2.19676 18.246937,-13.97512 0.16291,-16.0784 0,-49.40369 0,-49.40369 7.65719,7.10441 15.34914,9.91657 18.40986,14.95665 6.0374,9.94176 0.16291,27.10893 -0.48876,29.72634 1.75428,-2.58922 5.26113,-9.64049 5.20354,-18.05944 -0.0346,-5.04772 0.0101,-15.40606 -10.0911,-25.31484 -10.10099,-9.90879 -13.09114,-14.86981 -13.09114,-24.21772 7.44656,7.15172 21.79503,11.97859 20.19209,34.19454 0.54466,1.31616 0.92809,2.45865 0.92809,2.45865 2.10159,-7.64811 1.58318,-19.53988 -3.3044,-27.01821 -4.88758,-7.47832 -10.93363,-10.82532 -14.49979,-16.45231 -2.60672,-4.11308 -3.15307,-6.30182 -3.31599,-12.6584 7.33138,5.60875 15.38115,12.25546 17.1641,16.21061 3.93068,8.71938 3.63194,15.0247 3.30612,18.38993 0.95773,2.57205 0.76517,3.24245 0.76517,3.24245 0,0 1.00717,-3.81856 1.00717,-9.05339 0,-5.23483 0.13495,-10.3355 -4.5897,-19.12254 -4.72466,-8.78702 -13.34354,-12.99285 -15.47731,-18.13493 -1.62919,-3.92612 -2.03649,-5.23483 -2.11795,-10.46966 7.49428,5.23483 11.24143,7.47832 14.98856,13.46098 3.74714,5.98267 5.46357,7.63872 5.31872,20.89785 0.8146,2.05653 0.70928,2.65888 0.70928,2.65888 0,0 1.44651,-7.7654 1.01536,-13.99173 -0.36343,-5.24825 -2.1558,-10.8737 -6.39169,-16.66941 -4.23589,-5.79569 -10.30106,-11.57533 -13.35936,-15.51752 -2.02252,-2.60704 -2.20195,-4.10457 -2.22326,-5.92498 l -0.0575,-4.91859 z"
       id="path3872"
       inkscape:connector-curvature="0"
       sodipodi:nodetypes="cczssccscsscccsscsccssscsccsssscc" />
  </g>
</svg>
