<?xml version="1.0" encoding="UTF-8" standalone="no"?>
<!-- Generator: Adobe Illustrator 16.0.0, SVG Export Plug-In . SVG Version: 6.00 Build 0)  -->

<svg
   version="1.1"
   id="svg2"
   sodipodi:docname="MusicDnHundredtwentyeighthnote.svg"
   inkscape:version="1.1.2 (0a00cf5, 2022-02-04)"
   x="0px"
   y="0px"
   width="60"
   height="160"
   viewBox="0 -52.51 60 160"
   enable-background="new 0 -52.51 599 450.489"
   xml:space="preserve"
   xmlns:inkscape="http://www.inkscape.org/namespaces/inkscape"
   xmlns:sodipodi="http://sodipodi.sourceforge.net/DTD/sodipodi-0.dtd"
   xmlns="http://www.w3.org/2000/svg"
   xmlns:svg="http://www.w3.org/2000/svg"><defs
   id="defs377" />
<sodipodi:namedview
   pagecolor="#ffffff"
   inkscape:zoom="5.8"
   fit-margin-left="1"
   fit-margin-top="1"
   bordercolor="#666666"
   inkscape:cx="-6.9827586"
   showgrid="false"
   borderopacity="1.0"
   inkscape:cy="39.396552"
   id="base"
   fit-margin-bottom="1"
   fit-margin-right="1"
   inkscape:window-maximized="1"
   inkscape:window-y="0"
   inkscape:current-layer="svg2"
   inkscape:window-x="0"
   inkscape:pageshadow="2"
   inkscape:document-units="px"
   inkscape:pageopacity="0.0"
   inkscape:window-height="1025"
   inkscape:window-width="1920"
   inkscape:pagecheckerboard="0"
   width="60px">
	</sodipodi:namedview>
<path
   sodipodi:nodetypes="cczssccscsscccsscsccssscsccscccccccsc"
   inkscape:connector-curvature="0"
   stroke="#000000"
   d="m 2.4427682,88.623228 c 0.08328,-4.904563 0.557859,-6.13088 2.221211,-9.809125 2.178075,-4.817866 10.9776458,-8.758303 15.8007668,-16.990838 4.823446,-8.232536 4.685794,-13.011902 4.685794,-17.91612 0,-4.904907 -1.028447,-8.482237 -1.028447,-8.482237 0,0 0.196926,0.628071 -0.78113,3.037695 0.332937,3.153182 0.63788,9.060714 -3.375129,17.230131 -1.820109,3.705994 -10.0973908,9.933284 -17.5823388,15.188123 0.08328,-4.904563 0.557849,-6.130877 2.22121,-9.809126 2.178075,-4.817859 10.9776458,-8.758296 15.8007678,-16.990833 4.823438,-8.232536 4.685785,-13.011901 4.685785,-17.916118 0,-4.90491 -1.02844,-8.482238 -1.02844,-8.482238 0,0 0.196928,0.62807 -0.781129,3.037695 0.332937,3.15318 0.63788,9.060713 -3.375129,17.23013 -1.82011,3.705994 -10.0384428,9.933283 -17.5234008,15.188125 0.166309,-5.955742 0.724158,-8.006419 3.385343,-11.859806 3.640882,-5.272179 9.8135228,-8.40802 14.8029438,-15.414589 4.989748,-7.006221 5.519277,-18.1481341 3.373804,-25.31353969 0,0 -0.391549,1.07025039 -0.947756,2.30350169 1.636681,20.814743 -13.0121448,25.337121 -20.6146618,32.037808 0,-8.7583 3.05306,-13.406571 13.3651658,-22.690282 10.312098,-9.2840611 10.266986,-18.988798 10.302219,-23.718224 0.05896,-7.887813 -3.521335,-14.49416 -5.31247,-16.920085 0.665212,2.452281 6.662652,18.5365588 0.498911,27.85113477 C 18.112133,4.1365556 10.259013,6.7716042 2.4417802,13.42755 c 0,0 0.166301,-31.222808 0,-46.287125 7.6747698,-13.719161 -3.672715,-6.795454 -1.99563704,8.27624 l -0.0098,131.929705 2.00584204,0.0208 0.05896,-4.60839 c 0.02141,-1.7056 0.204836,-3.108786 2.269952,-5.551354 3.122221,-3.693165 9.3146198,-9.108578 13.6388298,-14.538554 4.324862,-5.429979 6.154524,-10.700773 6.525662,-15.617821 0.439965,-5.833663 -1.036676,-13.109355 -1.036676,-13.109355 0,0 0.107357,0.564258 -0.72416,2.49147 0.147859,12.422678 -1.604087,13.974299 -5.429712,19.579416 -3.825624,5.605116 -7.650923,7.706427 -15.3021818,12.610646"
   id="path374"
   style="stroke-width:0.337948" />
<path
   d="m 13.597208,-24.056055 c 4.24984,-0.524481 8.59329,-2.269271 12.33332,-5.171959 4.24984,-3.100036 7.15238,-7.238662 8.08872,-11.481147 0.2029,-1.355282 0.2029,-3.728375 -0.104,-4.766893 -0.93111,-3.629776 -3.83887,-5.898974 -8.18755,-6.833633 -1.23796,-0.202714 -4.36943,-0.202714 -5.91437,0 -3.93769,0.732126 -7.98465,2.497659 -11.4958404,5.073248 -4.14576,3.100109 -7.05357,7.238699 -7.98982,11.481148 -0.20292,1.355356 -0.20292,3.728375 0.10398,4.865567 0.93633,3.406499 3.74011,5.701626 7.88587,6.631136 1.13399,0.202714 4.0417604,0.306428 5.2797604,0.202714 z"
   id="path2616"
   style="fill:#000000" /></svg>
