<?xml version="1.0" encoding="UTF-8" standalone="no"?>
<!-- Created with Inkscape (http://www.inkscape.org/) -->

<svg
   id="svg2"
   version="1.1"
   inkscape:version="1.1.2 (0a00cf5, 2022-02-04)"
   width="60"
   height="160"
   sodipodi:docname="MusicDnEighthnote.svg"
   xmlns:inkscape="http://www.inkscape.org/namespaces/inkscape"
   xmlns:sodipodi="http://sodipodi.sourceforge.net/DTD/sodipodi-0.dtd"
   xmlns="http://www.w3.org/2000/svg"
   xmlns:svg="http://www.w3.org/2000/svg"
   xmlns:rdf="http://www.w3.org/1999/02/22-rdf-syntax-ns#"
   xmlns:cc="http://creativecommons.org/ns#"
   xmlns:dc="http://purl.org/dc/elements/1.1/">
  <sodipodi:namedview
     id="namedview67"
     pagecolor="#ffffff"
     bordercolor="#666666"
     borderopacity="1.0"
     inkscape:pageshadow="2"
     inkscape:pageopacity="0.0"
     inkscape:pagecheckerboard="0"
     showgrid="false"
     width="60px"
     inkscape:zoom="5.8"
     inkscape:cx="34.913793"
     inkscape:cy="70.603448"
     inkscape:window-width="1920"
     inkscape:window-height="1025"
     inkscape:window-x="0"
     inkscape:window-y="0"
     inkscape:window-maximized="1"
     inkscape:current-layer="svg2" />
  <metadata
     id="metadata8">
    <rdf:RDF>
      <cc:Work
         rdf:about="">
        <dc:format>image/svg+xml</dc:format>
        <dc:type
           rdf:resource="http://purl.org/dc/dcmitype/StillImage" />
      </cc:Work>
    </rdf:RDF>
  </metadata>
  <defs
     id="defs6" />
  <g
     id="g3782"
     transform="matrix(1,0,0,-1,-249.78923,145.62594)">
    <path
       sodipodi:nodetypes="ccccccc"
       inkscape:connector-curvature="0"
       id="rect2987"
       d="m 250.30279,43.363271 -0.0285,77.438189 c -1.1918,11.12367 8.04482,10.29229 2.93479,1.84306 V 69.988271 c 32.53399,8.241492 17.51919,36.811079 14.59268,46.902749 26.72779,-36.505741 -14.22819,-51.395935 -14.59268,-73.527749 z"
       style="fill:#000000;fill-rule:evenodd;stroke:none" />
  </g>
  <path
     d="m 13.673115,28.667324 c 4.24984,-0.52448 8.59329,-2.26927 12.33332,-5.17196 4.24984,-3.10004 7.15238,-7.23866 8.08872,-11.48115 0.2029,-1.35528 0.2029,-3.72837 -0.104,-4.76689 -0.93111,-3.62978 -3.83887,-5.89897 -8.18755,-6.83363 -1.23796,-0.20272 -4.36943,-0.20272 -5.91437,0 -3.93769,0.73212 -7.98465,2.49766 -11.4958397,5.07325 -4.14576,3.10011 -7.05357,7.23869 -7.98981972,11.48114 -0.20292,1.35536 -0.20292,3.72838 0.10398,4.86557 0.93632972,3.4065 3.74010972,5.70163 7.88586972,6.63114 1.13399,0.20271 4.0417597,0.30643 5.2797597,0.20271 z"
     id="path2616"
     style="fill:#000000" />
</svg>
