<?xml version="1.0" encoding="UTF-8" standalone="no"?>
<!-- Created with Inkscape (http://www.inkscape.org/) -->

<svg
   id="svg2"
   version="1.1"
   inkscape:version="1.1.2 (0a00cf5, 2022-02-04)"
   width="60"
   height="160"
   sodipodi:docname="Music-thirtysecondnote.svg"
   xmlns:inkscape="http://www.inkscape.org/namespaces/inkscape"
   xmlns:sodipodi="http://sodipodi.sourceforge.net/DTD/sodipodi-0.dtd"
   xmlns="http://www.w3.org/2000/svg"
   xmlns:svg="http://www.w3.org/2000/svg"
   xmlns:rdf="http://www.w3.org/1999/02/22-rdf-syntax-ns#"
   xmlns:cc="http://creativecommons.org/ns#"
   xmlns:dc="http://purl.org/dc/elements/1.1/">
  <metadata
     id="metadata8">
    <rdf:RDF>
      <cc:Work
         rdf:about="">
        <dc:format>image/svg+xml</dc:format>
        <dc:type
           rdf:resource="http://purl.org/dc/dcmitype/StillImage" />
      </cc:Work>
    </rdf:RDF>
  </metadata>
  <defs
     id="defs6" />
  <sodipodi:namedview
     pagecolor="#ffffff"
     bordercolor="#666666"
     borderopacity="1"
     objecttolerance="10"
     gridtolerance="10"
     guidetolerance="10"
     inkscape:pageopacity="0"
     inkscape:pageshadow="2"
     inkscape:window-width="1920"
     inkscape:window-height="1025"
     id="namedview4"
     showgrid="false"
     showguides="true"
     inkscape:guide-bbox="true"
     inkscape:zoom="5.8"
     inkscape:cx="50.775862"
     inkscape:cy="74.051724"
     inkscape:window-x="0"
     inkscape:window-y="0"
     inkscape:window-maximized="1"
     inkscape:current-layer="svg2"
     inkscape:snap-bbox="true"
     inkscape:bbox-paths="true"
     inkscape:snap-bbox-edge-midpoints="true"
     inkscape:pagecheckerboard="0" />
  <g
     id="g3850"
     transform="matrix(1.072597,0,0,1.0404139,-92.512146,7.0542639)">
    <path
       id="path2991"
       d="m 111.875,37.90625 0.1875,87.5625 c -1.8746,-2.54288 -9.75858,-4.19761 -16.5625,0.15625 -6.80392,4.35387 -10.88851,11.63438 -8.53125,15.9375 2.69075,4.91189 11.63561,7.54103 18.75,2.4375 5.14477,-3.69062 7.6185,-8.43281 8.40625,-9.84375 V 89.5 c 18.89239,12.47027 28.18114,14.86629 18.5625,41.1875 9.44248,-12.19554 8.76194,-20.06513 3.8125,-28.21875 0.73897,-5.485189 0.77685,-9.688378 0.28125,-13.0625 C 142.1906,58.113393 123.1135,60.801533 114.125,41.125 v -3.0625 z m 2.25,18.21875 c 18.97575,10.239083 20.72077,20.273317 21.21875,28 C 131.66686,75.578128 122.8384,72.973164 114.125,58.78125 Z m 0,15.375 c 19.23222,16.367779 19.15773,12.504158 21.46875,29.53125 C 130.34302,93.101948 121.41396,84.644201 114.125,71.5 Z"
       style="fill:#000000;stroke:none"
       inkscape:connector-curvature="0" />
  </g>
</svg>
