<?xml version="1.0" encoding="UTF-8" standalone="no"?>
<!-- Created with Inkscape (http://www.inkscape.org/) -->

<svg
   width="60"
   height="160"
   id="svg2"
   version="1.1"
   inkscape:version="1.1.2 (0a00cf5, 2022-02-04)"
   sodipodi:docname="MusicDnSixtyfourthnote.svg"
   style="display:inline"
   xmlns:inkscape="http://www.inkscape.org/namespaces/inkscape"
   xmlns:sodipodi="http://sodipodi.sourceforge.net/DTD/sodipodi-0.dtd"
   xmlns="http://www.w3.org/2000/svg"
   xmlns:svg="http://www.w3.org/2000/svg">
  <defs
     id="defs4" />
  <sodipodi:namedview
     id="base"
     pagecolor="#ffffff"
     bordercolor="#666666"
     borderopacity="1.0"
     inkscape:pageopacity="0.0"
     inkscape:pageshadow="2"
     inkscape:zoom="5.7125526"
     inkscape:cx="18.468101"
     inkscape:cy="54.879145"
     inkscape:document-units="px"
     inkscape:current-layer="layer2"
     showgrid="false"
     inkscape:window-width="1920"
     inkscape:window-height="1025"
     inkscape:window-x="0"
     inkscape:window-y="0"
     inkscape:window-maximized="1"
     fit-margin-top="1"
     fit-margin-left="1"
     fit-margin-right="1"
     fit-margin-bottom="1"
     inkscape:pagecheckerboard="0" />
  <g
     id="layer2"
     transform="translate(-82.84375,-214.4375)">
    <path
       style="fill:#000000;fill-opacity:1;stroke:#000000;stroke-width:0.345543px;stroke-linecap:butt;stroke-linejoin:miter;stroke-opacity:1"
       d="M 83.471017,368.47984 V 246.60485 c -1.164007,-28.38868 5.51852,-17.6521 1.95504,-8.83378 0.16291,16.0784 0,49.40369 0,49.40369 7.65719,-7.10441 15.349133,-9.91657 18.409853,-14.95665 6.0374,-9.94176 0.16291,-27.10893 -0.48876,-29.72634 1.75428,2.58922 5.26113,9.64049 5.20354,18.05944 -0.0346,5.04772 0.0101,15.40606 -10.091093,25.31484 -10.10099,9.90879 -13.09114,14.86981 -13.09114,24.21772 7.44656,-7.15172 21.795023,-11.97859 20.192083,-34.19454 0.54466,-1.31616 0.92809,-2.45865 0.92809,-2.45865 2.10159,7.64811 1.58318,19.53988 -3.3044,27.01821 -4.887573,7.47832 -10.933623,10.82532 -14.499783,16.45231 -2.60672,4.11308 -3.15307,6.30182 -3.31599,12.6584 7.33138,-5.60875 15.381143,-12.25546 17.164093,-16.21061 3.93068,-8.71938 3.63194,-15.0247 3.30612,-18.38993 0.95773,-2.57205 0.76517,-3.24245 0.76517,-3.24245 0,0 1.00717,3.81856 1.00717,9.05339 0,5.23483 0.13495,10.3355 -4.5897,19.12254 -4.724653,8.78702 -13.343533,12.99285 -15.477303,18.13493 -1.62919,3.92612 -2.03649,5.23483 -2.11795,10.46966 7.49428,-5.23483 11.24143,-7.47832 14.988553,-13.46098 3.74714,-5.98267 5.46357,-7.63872 5.31872,-20.89785 0.8146,-2.05653 0.70928,-2.65888 0.70928,-2.65888 0,0 1.44651,7.7654 1.01536,13.99173 -0.36343,5.24825 -2.1558,10.8737 -6.39169,16.66941 -4.235883,5.79569 -10.301053,11.57533 -13.359353,15.51752 -2.02252,2.60704 -2.20195,4.10457 -2.22326,5.92498 l -0.0575,4.91859 z"
       id="path3872"
       inkscape:connector-curvature="0"
       sodipodi:nodetypes="ccccscsscccsscsccssscsccsssscc" />
    <path
       d="m 96.407227,243.16837 c 4.249843,-0.52448 8.593293,-2.26927 12.333323,-5.17196 4.24984,-3.10004 7.15238,-7.23866 8.08872,-11.48115 0.2029,-1.35528 0.2029,-3.72837 -0.104,-4.76689 -0.93111,-3.62978 -3.83887,-5.89897 -8.18755,-6.83363 -1.23796,-0.20272 -4.36943,-0.20272 -5.91437,0 -3.937693,0.73212 -7.984653,2.49766 -11.495843,5.07325 -4.14576,3.1001 -7.05357,7.23869 -7.98982,11.48114 -0.20292,1.35536 -0.20292,3.72838 0.10398,4.86557 0.93633,3.4065 3.74011,5.70163 7.88587,6.63114 1.13399,0.20271 4.04176,0.30642 5.27976,0.20271 z"
       id="path2616"
       style="fill:#000000" />
  </g>
</svg>
