<?xml version="1.0" encoding="UTF-8" standalone="no"?>
<!-- Generator: Adobe Illustrator 16.0.0, SVG Export Plug-In . SVG Version: 6.00 Build 0)  -->

<svg
   version="1.1"
   id="svg2"
   sodipodi:docname="Music-hundredtwentyeighthnote.svg"
   inkscape:version="1.1.2 (0a00cf5, 2022-02-04)"
   x="0px"
   y="0px"
   width="60"
   height="160"
   viewBox="0 -52.51 60 160"
   enable-background="new 0 -52.51 599 450.489"
   xml:space="preserve"
   xmlns:inkscape="http://www.inkscape.org/namespaces/inkscape"
   xmlns:sodipodi="http://sodipodi.sourceforge.net/DTD/sodipodi-0.dtd"
   xmlns="http://www.w3.org/2000/svg"
   xmlns:svg="http://www.w3.org/2000/svg"><defs
   id="defs377" />
<sodipodi:namedview
   pagecolor="#ffffff"
   inkscape:zoom="5.8"
   fit-margin-left="1"
   fit-margin-top="1"
   bordercolor="#666666"
   inkscape:cx="-6.8965517"
   showgrid="false"
   borderopacity="1.0"
   inkscape:cy="72.155172"
   id="base"
   fit-margin-bottom="1"
   fit-margin-right="1"
   inkscape:window-maximized="1"
   inkscape:window-y="0"
   inkscape:current-layer="svg2"
   inkscape:window-x="0"
   inkscape:pageshadow="2"
   inkscape:document-units="px"
   inkscape:pageopacity="0.0"
   inkscape:window-height="1369"
   inkscape:window-width="2560"
   inkscape:pagecheckerboard="0"
   width="60px">
	</sodipodi:namedview>
<path
   sodipodi:nodetypes="cczssccscsscccsscsccssscsccsssscc"
   inkscape:connector-curvature="0"
   stroke="#000000"
   d="m 29.237991,-32.55304 c 0.08328,5.107819 0.557859,6.384957 2.221211,10.215637 2.178075,5.017529 10.977646,9.121266 15.800767,17.6949758 4.823446,8.5737111 4.685794,13.551144 4.685794,18.6586042 0,5.108178 -1.028447,8.83376 -1.028447,8.83376 0,0 0.196926,-0.654099 -0.78113,-3.163584 0.332937,-3.283857 0.63788,-9.43621 -3.375129,-17.9441861 -1.820109,-3.859579 -10.097391,-10.3449411 -17.582339,-15.8175529 0.08328,5.1078187 0.557849,6.3849554 2.22121,10.2156378 2.178075,5.0175228 10.977646,9.1212607 15.800768,17.6949722 4.823438,8.57371 4.685785,13.551143 4.685785,18.658602 0,5.10818 -1.02844,8.833761 -1.02844,8.833761 0,0 0.196928,-0.654099 -0.781129,-3.163584 0.332937,-3.283855 0.63788,-9.43621 -3.375129,-17.944185 C 44.881673,16.360239 36.66334,9.874877 29.178382,4.4022629 c 0.166309,6.2025611 0.724158,8.3382221 3.385343,12.3513021 3.640882,5.49067 9.813523,8.756468 14.802944,16.053405 4.989748,7.296574 5.519277,18.900233 3.373804,26.362589 0,0 -0.391549,-1.114604 -0.947756,-2.398964 1.636681,-21.677352 -13.012145,-26.387148 -20.614662,-33.365526 0,9.121263 3.05306,13.962169 13.365166,23.630618 10.312098,9.668813 10.266986,19.775736 10.302219,24.70116 0.05896,8.214702 -3.521335,15.094831 -5.31247,17.621291 0.665212,-2.553909 6.662652,-19.304755 0.498911,-29.005348 -3.124525,-4.917841 -10.977645,-7.662092 -18.794878,-14.593875 0,0 0.166301,32.516751 0,48.205367 -3.991935,11.492778 -13.638821,13.636378 -18.628569,13.636378 -4.9897488,0 -10.02461925,-3.25821 -10.14613344,-7.661715 C 0.31180248,94.480404 4.1212981,89.54054 10.275823,86.257039 16.430021,82.973182 24.413555,82.790791 27.241366,85.345056 l -0.0098,-137.397167 2.005842,-0.02168 0.05896,4.799365 c 0.02141,1.776291 0.204836,3.237624 2.269952,5.781418 3.122221,3.846218 9.31462,9.486057 13.63883,15.141064 4.324862,5.655009 6.154524,11.144237 6.525662,16.265058 0.439965,6.075423 -1.036676,13.6526364 -1.036676,13.6526364 0,0 0.107357,-0.5876424 -0.72416,-2.59472209 C 50.117835,-11.966473 48.365889,-13.582397 44.540264,-19.419803 40.71464,-25.257207 36.889341,-27.445601 29.238082,-32.553062"
   id="path374"
   style="stroke-width:0.34488" />
</svg>
