<?xml version="1.0" encoding="UTF-8" standalone="no"?>
<!-- Created with Inkscape (http://www.inkscape.org/) -->

<svg
   version="1.1"
   width="60"
   height="160"
   id="svg2"
   sodipodi:docname="MusicDnHalfnote.svg"
   inkscape:version="1.1.2 (0a00cf5, 2022-02-04)"
   xmlns:inkscape="http://www.inkscape.org/namespaces/inkscape"
   xmlns:sodipodi="http://sodipodi.sourceforge.net/DTD/sodipodi-0.dtd"
   xmlns="http://www.w3.org/2000/svg"
   xmlns:svg="http://www.w3.org/2000/svg"
   xmlns:rdf="http://www.w3.org/1999/02/22-rdf-syntax-ns#"
   xmlns:cc="http://creativecommons.org/ns#"
   xmlns:dc="http://purl.org/dc/elements/1.1/">
  <sodipodi:namedview
     id="namedview259"
     pagecolor="#ffffff"
     bordercolor="#666666"
     borderopacity="1.0"
     inkscape:pageshadow="2"
     inkscape:pageopacity="0.0"
     inkscape:pagecheckerboard="0"
     showgrid="false"
     width="60px"
     inkscape:zoom="5.8"
     inkscape:cx="42.758621"
     inkscape:cy="43.534483"
     inkscape:window-width="1553"
     inkscape:window-height="1025"
     inkscape:window-x="365"
     inkscape:window-y="0"
     inkscape:window-maximized="0"
     inkscape:current-layer="svg2"
     height="160px" />
  <metadata
     id="metadata8">
    <rdf:RDF>
      <cc:Work
         rdf:about="">
        <dc:format>image/svg+xml</dc:format>
        <dc:type
           rdf:resource="http://purl.org/dc/dcmitype/StillImage" />
      </cc:Work>
    </rdf:RDF>
  </metadata>
  <defs
     id="defs6" />
  <g
     transform="matrix(-0.96160158,0,0,-0.95078597,111.31443,141.3141)"
     id="g3862">
    <path
       d="m 85.093708,139.34944 c -5e-6,-4.5246 2.149825,-8.52714 6.449494,-12.00763 4.299646,-3.56747 8.852228,-5.35121 13.657748,-5.35123 2.78211,2e-5 5.26916,0.73961 7.46118,2.2188 V 46.942827 h 2.78214 v 84.445033 c -4e-5,4.87267 -2.06556,8.91872 -6.19658,12.13816 -4.13107,3.21943 -8.68365,4.82916 -13.657747,4.82916 -2.782148,0 -5.227051,-0.82662 -7.334718,-2.47984 -2.107683,-1.74024 -3.161522,-3.91554 -3.161517,-6.5259 m 5.81719,3.91554 c 4.468261,0 8.978687,-1.95776 13.531292,-5.8733 4.63686,-3.91553 6.9553,-6.83042 6.95533,-8.7447 -3e-5,-1.21814 -0.50587,-1.82723 -1.51753,-1.82725 -3.11938,2e-5 -7.41904,1.87077 -12.898981,5.61227 -5.395665,3.6545 -8.09349,6.69992 -8.093481,9.13625 -9e-6,1.13116 0.674447,1.69673 2.02337,1.69673"
       id="path3859"
       style="fill:#000000;fill-rule:evenodd;stroke:none" />
  </g>
</svg>
