<?xml version="1.0" encoding="UTF-8" standalone="no"?>
<svg
   xmlns="http://www.w3.org/2000/svg"
   width="222"
   height="143"
   id="svg2"
   version="1.1">
  <g
     id="g1"
     style="stroke:#000;stroke-width:6">
    <path
       d="m 1.5,118.3 219,0"
       id="path14" />
    <path
       d="m 1.5,91.7 219,0"
       id="path18" />
    <path
       d="m 1.5,65.1 219,0"
       id="path22" />
    <path
       d="m 1.5,38.5 219,0"
       id="path26" />
    <path
       d="m 1.5,12 219,0"
       id="path30" />
  </g>
  <g
    id="g2"
    style="fill:#000">
    <path
       d="m 104.39265,129.06575 0,-12.91951 0.83227,0 0.93634,0 1.56569,-1.6669 c 10.13822,-10.65027 14.80937,-18.418588 15.64686,-25.761147 0.0989,-1.235864 0.067,-4.234107 -0.10399,-6.101466 -0.3308,-3.607584 -1.18605,-6.551394 -2.28144,-9.248794 -0.20291,-0.628303 -0.40574,-1.132005 -0.40574,-1.459176 0,-0.404994 0.30182,-1.23583 0.70744,-1.542185 0.32755,-0.425807 1.24316,-0.727013 1.76858,-0.727013 0.4057,0 1.34202,0.425807 1.66975,0.727013 0.30181,0.306428 0.70744,1.339724 1.53971,3.837383 2.7049,8.173394 2.18264,11.211673 1.1475,17.515674 -0.6294,3.733561 -1.97143,7.446343 -4.04174,11.683601 -1.56574,3.10526 -2.9078,5.39527 -6.74668,11.60581 -5.1809,8.27722 -7.15238,12.20809 -8.69727,16.8556 -1.03514,3.10522 -1.7686,6.93747 -1.7686,9.51309 l 0,0.6283 -0.83227,0 -0.93634,0 0,-12.94028 z"
       id="path58" />
    <path
       d="m 104.56291,57.644919 -1.3004,0 0,83.592571 1.3004,0 0,-83.592571 z"
       style="stroke:#000;stroke-width:2.1;stroke-linejoin:round"
       id="path2614" />
    <path
       d="m 115.63681,67.90572 c 4.24984,-0.524481 8.59329,-2.269271 12.33332,-5.171959 4.24984,-3.100036 7.15238,-7.238662 8.08872,-11.481147 0.2029,-1.355282 0.2029,-3.728375 -0.104,-4.766893 -0.93111,-3.629776 -3.83887,-5.898974 -8.18755,-6.833633 -1.23796,-0.202714 -4.36943,-0.202714 -5.91437,0 -3.93769,0.732126 -7.98465,2.497659 -11.49584,5.073248 -4.14576,3.100109 -7.05357,7.238699 -7.98982,11.481148 -0.20292,1.355356 -0.20292,3.728375 0.10398,4.865567 0.93633,3.406499 3.74011,5.701626 7.88587,6.631136 1.13399,0.202714 4.04176,0.306428 5.27976,0.202714 z"
       id="path2616" />
    <path
       d="m 56.693777,15.544792 0,13.249796 0.853238,0 0.95982,0 1.605067,1.709473 c 10.393046,10.922588 15.181621,18.889483 16.040144,26.419738 0.101301,1.267448 0.101301,4.345573 -0.106661,6.257417 -0.538547,4.99532 -1.914323,10.406013 -3.935377,15.065789 -0.207962,0.644398 -0.415917,1.160969 -0.415917,1.496477 0,0.415367 0.309263,1.267448 0.725209,1.581652 0.335956,0.436671 1.27444,0.745597 1.813062,0.745597 0.415914,0 1.375774,-0.436675 1.711722,-0.745597 0.309263,-0.314324 0.725209,-1.37397 1.57841,-3.935486 C 80.295376,69.007312 81.35657,60.31081 80.295376,53.845671 79.650169,50.016634 78.274395,46.208933 76.152042,41.863325 74.546978,38.678675 73.171166,36.330159 69.235794,29.960869 63.924641,21.472052 61.903625,17.440684 60.319893,12.674349 59.258732,9.4897405 58.506831,5.5594966 58.506831,2.918083 l 0,-0.644397 -0.853199,0 -0.959859,0 0,13.271106 z"
       id="path2786" />
    <path
       d="m 57.632304,88.791441 1.333112,0 0,-85.7295846 -1.333112,0 0,85.7295846 z"
       style="stroke:#000;stroke-width:2.1;stroke-linejoin:round"
       id="path2790" />
    <path
       d="m 46.28005,78.268348 c -4.356613,0.537838 -8.809275,2.327212 -12.643314,5.304171 -4.356653,3.179291 -7.33217,7.423649 -8.292029,11.774591 -0.207962,1.38995 -0.207962,3.823696 0.106661,4.88877 0.954532,3.72249 3.935372,6.04977 8.393322,7.00833 1.269156,0.20773 4.479282,0.20773 6.063054,0 4.036674,-0.7509 8.185368,-2.56155 11.784791,-5.20299 4.249993,-3.179299 7.230868,-7.423727 8.190692,-11.774632 0.207998,-1.389987 0.207998,-3.823628 -0.106625,-4.989911 -0.95986,-3.493529 -3.834078,-5.847399 -8.08407,-6.800646 -1.162494,-0.207628 -4.143334,-0.314325 -5.412486,-0.207628 z"
       id="path2792" />
    <path
       d="m 175.89164,41.672119 c -2.46585,0.46464 -4.35316,2.16673 -5.20671,4.51834 -0.18493,0.75861 -0.18493,0.94351 -0.18493,1.9818 0,1.4271 0.0901,2.18572 0.75871,3.31409 0.94364,1.89173 2.92578,3.4089 5.18773,3.96362 2.37097,0.66851 6.33527,0.0949 10.87335,-1.40812 l 1.1286,-0.38876 -5.57659,15.40882 -5.48172,15.38984 c 0,0 0.18496,0.0948 0.4837,0.29869 0.5548,0.36983 1.49844,0.64957 2.16707,0.64957 1.12859,0 2.55593,-0.64957 2.74086,-1.22322 0,-0.18493 2.64603,-9.16945 5.8516,-19.83708 l 5.66668,-19.55738 -0.18496,-0.27496 c -0.45993,-0.57369 -1.40361,-0.75862 -1.98214,-0.29872 -0.18493,0.18492 -0.47893,0.57368 -0.66385,0.85344 -0.85358,1.42708 -3.02065,3.96361 -4.14925,4.90709 -1.03851,0.85341 -1.61226,0.94352 -2.55594,0.57369 -0.85354,-0.46464 -1.1333,-0.94351 -1.7071,-3.49897 -0.5548,-2.53653 -1.21868,-3.68866 -2.64602,-4.63214 -1.31827,-0.84869 -3.02065,-1.1284 -4.5191,-0.73964 z"
       id="path2932" />
  </g>
</svg>
