<?xml version="1.0" encoding="UTF-8" standalone="no"?>
<!-- Created with Inkscape (http://www.inkscape.org/) -->
<!DOCTYPE svg PUBLIC "-//W3C//DTD SVG 1.1//EN" "http://www.w3.org/Graphics/SVG/1.1/DTD/svg11.dtd">
<svg
   xmlns:dc="http://purl.org/dc/elements/1.1/"
   xmlns:cc="http://creativecommons.org/ns#"
   xmlns:rdf="http://www.w3.org/1999/02/22-rdf-syntax-ns#"
   xmlns:svg="http://www.w3.org/2000/svg"
   xmlns="http://www.w3.org/2000/svg"
   version="1.1"
   width="200"
   height="200"
   id="svg7964">
  <defs
     id="defs7968" />
  <path
     d="m 76.00245,76.000265 1.995365,0 0,10.00278 44.002645,-0.0017 0,-10.001059 1.99928,-0.0039 0.002,50.002184 -2.00271,0 0.002,-33.002251 -44.003108,4.63e-4 4.63e-4,13.001848 44.000465,4.7e-4 0.002,6.99933 -44.000923,0.002 -0.0039,10.99961 -1.995365,0 z"
     id="path8014"
     style="fill:#000000;fill-opacity:1;stroke:none" />
  <g
     transform="translate(266.88791,23.037649)"
     id="g8557">
    <path
       d="m -266.87933,28.966962 199.996095,-0.0026"
       id="path7839"
       style="fill:none;stroke:#000000;stroke-width:4;stroke-linecap:butt;stroke-linejoin:miter;stroke-miterlimit:4;stroke-opacity:0.25098039;stroke-dasharray:none" />
    <path
       d="m -266.87697,52.963096 199.998845,0.0012"
       id="path7839-9"
       style="fill:none;stroke:#000000;stroke-width:4;stroke-linecap:butt;stroke-linejoin:miter;stroke-miterlimit:4;stroke-opacity:0.25098039;stroke-dasharray:none" />
    <path
       d="m -266.88409,76.960849 200.013785,0.0031"
       id="path7839-7"
       style="fill:none;stroke:#000000;stroke-width:4;stroke-linecap:butt;stroke-linejoin:miter;stroke-miterlimit:4;stroke-opacity:0.25098039;stroke-dasharray:none" />
    <path
       d="m -266.87694,100.96108 199.998045,1.9e-4"
       id="path7839-0"
       style="fill:none;stroke:#000000;stroke-width:4;stroke-linecap:butt;stroke-linejoin:miter;stroke-miterlimit:4;stroke-opacity:0.25098039;stroke-dasharray:none" />
    <path
       d="m -266.8803,124.96244 200.001935,-0.004"
       id="path7839-0-3"
       style="fill:none;stroke:#000000;stroke-width:4;stroke-linecap:butt;stroke-linejoin:miter;stroke-miterlimit:4;stroke-opacity:0.25098039;stroke-dasharray:none" />
  </g>
</svg>
